<svg width="20" height="20" viewBox="0 0 20 20" fill="none" xmlns="http://www.w3.org/2000/svg">
<path fill-rule="evenodd" clip-rule="evenodd" d="M6.24999 5.013V4C6.24999 3.00544 6.64508 2.05161 7.34834 1.34835C8.05161 0.645088 9.00543 0.25 10 0.25C10.9946 0.25 11.9484 0.645088 12.6516 1.34835C13.3549 2.05161 13.75 3.00544 13.75 4V5.013C15.047 5.05 15.837 5.183 16.442 5.68C17.272 6.36 17.502 7.514 17.965 9.823L18.565 12.823C19.229 16.143 19.561 17.803 18.661 18.902C17.761 20.001 16.067 20 12.68 20H7.31999C3.93399 20 2.23999 20 1.33999 18.902C0.439995 17.804 0.771995 16.144 1.43599 12.823L2.03599 9.823C2.49799 7.514 2.72899 6.36 3.55799 5.68C4.16399 5.184 4.954 5.05 6.251 5.013M7.74999 4C7.74999 3.40326 7.98705 2.83097 8.409 2.40901C8.83096 1.98705 9.40326 1.75 10 1.75C10.5967 1.75 11.169 1.98705 11.591 2.40901C12.0129 2.83097 12.25 3.40326 12.25 4V5H7.74999V4ZM13 9C13.2652 9 13.5196 8.89464 13.7071 8.70711C13.8946 8.51957 14 8.26522 14 8C14 7.73478 13.8946 7.48043 13.7071 7.29289C13.5196 7.10536 13.2652 7 13 7C12.7348 7 12.4804 7.10536 12.2929 7.29289C12.1054 7.48043 12 7.73478 12 8C12 8.26522 12.1054 8.51957 12.2929 8.70711C12.4804 8.89464 12.7348 9 13 9ZM7.99999 8C7.99999 8.26522 7.89464 8.51957 7.7071 8.70711C7.51956 8.89464 7.26521 9 6.99999 9C6.73478 9 6.48042 8.89464 6.29289 8.70711C6.10535 8.51957 5.99999 8.26522 5.99999 8C5.99999 7.73478 6.10535 7.48043 6.29289 7.29289C6.48042 7.10536 6.73478 7 6.99999 7C7.26521 7 7.51956 7.10536 7.7071 7.29289C7.89464 7.48043 7.99999 7.73478 7.99999 8Z" fill="#003366"/>
</svg>
