<svg width="25" height="24" viewBox="0 0 25 24" fill="none" xmlns="http://www.w3.org/2000/svg">
<path fill-rule="evenodd" clip-rule="evenodd" d="M8.43479 7.013V6C8.43479 5.00544 8.82988 4.05161 9.53314 3.34835C10.2364 2.64509 11.1902 2.25 12.1848 2.25C13.1794 2.25 14.1332 2.64509 14.8364 3.34835C15.5397 4.05161 15.9348 5.00544 15.9348 6V7.013C17.2318 7.05 18.0218 7.183 18.6268 7.68C19.4568 8.36 19.6868 9.514 20.1498 11.823L20.7498 14.823C21.4138 18.143 21.7458 19.803 20.8458 20.902C19.9458 22.001 18.2518 22 14.8648 22H9.50479C6.11879 22 4.42479 22 3.52479 20.902C2.62479 19.804 2.95679 18.144 3.62079 14.823L4.22079 11.823C4.68279 9.514 4.91379 8.36 5.74279 7.68C6.34879 7.184 7.13879 7.05 8.43579 7.013M9.93479 6C9.93479 5.40326 10.1718 4.83097 10.5938 4.40901C11.0158 3.98705 11.5881 3.75 12.1848 3.75C12.7815 3.75 13.3538 3.98705 13.7758 4.40901C14.1977 4.83097 14.4348 5.40326 14.4348 6V7H9.93479V6ZM15.1848 11C15.45 11 15.7044 10.8946 15.8919 10.7071C16.0794 10.5196 16.1848 10.2652 16.1848 10C16.1848 9.73478 16.0794 9.48043 15.8919 9.29289C15.7044 9.10536 15.45 9 15.1848 9C14.9196 9 14.6652 9.10536 14.4777 9.29289C14.2902 9.48043 14.1848 9.73478 14.1848 10C14.1848 10.2652 14.2902 10.5196 14.4777 10.7071C14.6652 10.8946 14.9196 11 15.1848 11ZM10.1848 10C10.1848 10.2652 10.0794 10.5196 9.8919 10.7071C9.70436 10.8946 9.45001 11 9.18479 11C8.91958 11 8.66522 10.8946 8.47769 10.7071C8.29015 10.5196 8.18479 10.2652 8.18479 10C8.18479 9.73478 8.29015 9.48043 8.47769 9.29289C8.66522 9.10536 8.91958 9 9.18479 9C9.45001 9 9.70436 9.10536 9.8919 9.29289C10.0794 9.48043 10.1848 9.73478 10.1848 10Z" fill="#FEFEFE" fill-opacity="0.996078"/>
</svg>
