<svg width="19" height="20" viewBox="0 0 19 20" fill="none" xmlns="http://www.w3.org/2000/svg">
<path fill-rule="evenodd" clip-rule="evenodd" d="M5.45921 5.013V4C5.45921 3.00544 5.8543 2.05161 6.55756 1.34835C7.26082 0.645088 8.21465 0.25 9.20921 0.25C10.2038 0.25 11.1576 0.645088 11.8609 1.34835C12.5641 2.05161 12.9592 3.00544 12.9592 4V5.013C14.2562 5.05 15.0462 5.183 15.6512 5.68C16.4812 6.36 16.7112 7.514 17.1742 9.823L17.7742 12.823C18.4382 16.143 18.7702 17.803 17.8702 18.902C16.9702 20.001 15.2762 20 11.8892 20H6.52921C3.14321 20 1.44921 20 0.549208 18.902C-0.350792 17.804 -0.0187918 16.144 0.645208 12.823L1.24521 9.823C1.70721 7.514 1.93821 6.36 2.76721 5.68C3.37321 5.184 4.16321 5.05 5.46021 5.013M6.95921 4C6.95921 3.40326 7.19626 2.83097 7.61822 2.40901C8.04017 1.98705 8.61247 1.75 9.20921 1.75C9.80595 1.75 10.3782 1.98705 10.8002 2.40901C11.2222 2.83097 11.4592 3.40326 11.4592 4V5H6.95921V4ZM12.2092 9C12.4744 9 12.7288 8.89464 12.9163 8.70711C13.1039 8.51957 13.2092 8.26522 13.2092 8C13.2092 7.73478 13.1039 7.48043 12.9163 7.29289C12.7288 7.10536 12.4744 7 12.2092 7C11.944 7 11.6896 7.10536 11.5021 7.29289C11.3146 7.48043 11.2092 7.73478 11.2092 8C11.2092 8.26522 11.3146 8.51957 11.5021 8.70711C11.6896 8.89464 11.944 9 12.2092 9ZM7.20921 8C7.20921 8.26522 7.10385 8.51957 6.91631 8.70711C6.72878 8.89464 6.47442 9 6.20921 9C5.94399 9 5.68964 8.89464 5.5021 8.70711C5.31457 8.51957 5.20921 8.26522 5.20921 8C5.20921 7.73478 5.31457 7.48043 5.5021 7.29289C5.68964 7.10536 5.94399 7 6.20921 7C6.47442 7 6.72878 7.10536 6.91631 7.29289C7.10385 7.48043 7.20921 7.73478 7.20921 8Z" fill="#333333"/>
<circle cx="14" cy="4" r="4" fill="#4CAF50"/>
</svg>
