<svg width="21" height="20" viewBox="0 0 21 20" fill="none" xmlns="http://www.w3.org/2000/svg">
<path d="M6.49998 16C6.89781 16 7.27934 16.158 7.56065 16.4393C7.84195 16.7206 7.99998 17.1022 7.99998 17.5C7.99998 17.8978 7.84195 18.2794 7.56065 18.5607C7.27934 18.842 6.89781 19 6.49998 19C6.10216 19 5.72063 18.842 5.43932 18.5607C5.15802 18.2794 4.99998 17.8978 4.99998 17.5C4.99998 17.1022 5.15802 16.7206 5.43932 16.4393C5.72063 16.158 6.10216 16 6.49998 16ZM15.5 16C15.8978 16 16.2793 16.158 16.5606 16.4393C16.8419 16.7206 17 17.1022 17 17.5C17 17.8978 16.8419 18.2794 16.5606 18.5607C16.2793 18.842 15.8978 19 15.5 19C15.1022 19 14.7206 18.842 14.4393 18.5607C14.158 18.2794 14 17.8978 14 17.5C14 17.1022 14.158 16.7206 14.4393 16.4393C14.7206 16.158 15.1022 16 15.5 16Z" stroke="#fefefe" stroke-width="1.5"/>
<path d="M1.24899 0.291999C1.06122 0.22596 0.854902 0.237219 0.675429 0.323298C0.495957 0.409377 0.35803 0.563226 0.291991 0.750999C0.225953 0.938772 0.237211 1.14509 0.32329 1.32456C0.409369 1.50403 0.563218 1.64196 0.750991 1.708L1.24899 0.291999ZM19.658 7.883L20.392 8.034L20.393 8.03L19.658 7.883ZM4.70799 7.76V5.038H3.20799V7.76H4.70799ZM1.50999 0.383999L1.24899 0.291999L0.750991 1.708L1.01199 1.799L1.50999 0.383999ZM9.93799 14.25H15.24V12.75H9.93799V14.25ZM4.70799 5.038C4.70799 4.331 4.70899 3.741 4.65799 3.262C4.60299 2.765 4.48799 2.312 4.20599 1.9L2.96699 2.746C3.05699 2.878 3.12699 3.06 3.16599 3.423C3.20699 3.803 3.20799 4.298 3.20799 5.038H4.70799ZM1.01199 1.799C1.67999 2.034 2.11899 2.19 2.44199 2.35C2.74499 2.498 2.87899 2.618 2.96699 2.747L4.20599 1.9C3.92199 1.484 3.54299 1.218 3.10199 1.001C2.68199 0.794999 2.14399 0.606999 1.50999 0.383999L1.01199 1.799ZM3.20799 7.76C3.20799 9.213 3.22199 10.26 3.35799 11.06C3.50499 11.914 3.79799 12.526 4.34299 13.102L5.43199 12.07C5.11199 11.732 4.93899 11.402 4.83699 10.807C4.72699 10.157 4.70799 9.249 4.70799 7.76H3.20799ZM9.93799 12.75C8.52099 12.75 7.53799 12.748 6.79699 12.643C6.08199 12.542 5.70499 12.358 5.43199 12.07L4.34299 13.102C4.93699 13.729 5.68999 14.002 6.58599 14.128C7.45599 14.252 8.56699 14.25 9.93799 14.25V12.75ZM3.95799 4.87H16.088V3.37H3.95899L3.95799 4.87ZM18.923 7.731L18.423 10.156L19.893 10.458L20.392 8.034L18.923 7.731ZM16.09 4.87C16.946 4.87 17.7 4.871 18.295 4.937C18.589 4.97167 18.813 5.01633 18.967 5.071C19.128 5.128 19.154 5.171 19.141 5.154L20.33 4.24C20.095 3.934 19.765 3.761 19.464 3.656C19.1385 3.54886 18.8021 3.47842 18.461 3.446C17.766 3.369 16.918 3.37 16.09 3.37V4.87ZM20.393 8.03C20.563 7.182 20.707 6.47 20.742 5.9C20.779 5.314 20.712 4.736 20.33 4.24L19.141 5.154C19.203 5.235 19.271 5.38 19.245 5.808C19.218 6.252 19.101 6.845 18.923 7.736L20.393 8.03ZM15.24 14.25C16.002 14.25 16.642 14.251 17.158 14.188C17.693 14.123 18.182 13.979 18.608 13.632L17.66 12.469C17.535 12.571 17.358 12.653 16.975 12.699C16.572 12.749 16.04 12.75 15.24 12.75V14.25ZM18.425 10.156C18.263 10.939 18.155 11.459 18.025 11.844C17.902 12.21 17.785 12.367 17.66 12.469L18.608 13.632C19.035 13.284 19.274 12.835 19.446 12.323C19.612 11.831 19.74 11.205 19.894 10.459L18.425 10.156Z" fill="#fefefe"/>
<path d="M12 11V9M12 9V7M12 9H14M12 9H9.99998" stroke="#fefefe" stroke-width="1.5" stroke-linecap="round"/>
</svg>
