<svg width="12" height="12" viewBox="0 0 12 12" fill="none" xmlns="http://www.w3.org/2000/svg">
<path d="M2.5 0C1.83696 0 1.20107 0.263392 0.732233 0.732233C0.263392 1.20107 0 1.83696 0 2.5V9.5C0 10.163 0.263392 10.7989 0.732233 11.2678C1.20107 11.7366 1.83696 12 2.5 12H9.5C10.163 12 10.7989 11.7366 11.2678 11.2678C11.7366 10.7989 12 10.163 12 9.5V2.5C12 1.83696 11.7366 1.20107 11.2678 0.732233C10.7989 0.263392 10.163 0 9.5 0H2.5ZM8.854 4.854L5.354 8.354C5.30755 8.40056 5.25238 8.43751 5.19163 8.46271C5.13089 8.48792 5.06577 8.50089 5 8.50089C4.93423 8.50089 4.86911 8.48792 4.80837 8.46271C4.74762 8.43751 4.69245 8.40056 4.646 8.354L3.146 6.854C3.09951 6.80751 3.06264 6.75232 3.03748 6.69158C3.01232 6.63084 2.99937 6.56574 2.99937 6.5C2.99937 6.43426 3.01232 6.36916 3.03748 6.30842C3.06264 6.24768 3.09951 6.19249 3.146 6.146C3.23989 6.05211 3.36722 5.99937 3.5 5.99937C3.56574 5.99937 3.63084 6.01232 3.69158 6.03748C3.75232 6.06264 3.80751 6.09951 3.854 6.146L5 7.293L8.146 4.146C8.23989 4.05211 8.36722 3.99937 8.5 3.99937C8.63278 3.99937 8.76011 4.05211 8.854 4.146C8.94789 4.23989 9.00063 4.36722 9.00063 4.5C9.00063 4.63278 8.94789 4.76011 8.854 4.854Z" fill="#333333"/>
</svg>
