<svg width="44" height="44" viewBox="0 0 44 44" fill="none" xmlns="http://www.w3.org/2000/svg">
<path d="M22 42C24.6269 42.0032 27.2286 41.4874 29.6555 40.4821C32.0824 39.4768 34.2868 38.0018 36.142 36.142C38.0018 34.2868 39.4768 32.0824 40.4821 29.6555C41.4874 27.2286 42.0032 24.6269 42 22C42.0032 19.3731 41.4874 16.7714 40.4821 14.3445C39.4768 11.9176 38.0018 9.71318 36.142 7.85801C34.2868 5.99817 32.0824 4.52323 29.6555 3.51793C27.2286 2.51263 24.6269 1.99678 22 2.00002C19.3731 1.99678 16.7714 2.51263 14.3445 3.51793C11.9176 4.52323 9.71318 5.99817 7.85801 7.85801C5.99817 9.71318 4.52323 11.9176 3.51793 14.3445C2.51263 16.7714 1.99678 19.3731 2.00002 22C1.99678 24.6269 2.51263 27.2286 3.51793 29.6555C4.52323 32.0824 5.99817 34.2868 7.85801 36.142C9.71318 38.0018 11.9176 39.4768 14.3445 40.4821C16.7714 41.4874 19.3731 42.0032 22 42Z" fill="#91CAFF" stroke="#0085FF" stroke-width="4" stroke-linejoin="round"/>
<path d="M11.5558 22.5556L18.7225 28.6667L33.0558 16.4444" fill="#91CAFF"/>
<path d="M11.5558 22.5556L18.7225 28.6667L33.0558 16.4444" stroke="#0085FF" stroke-width="4" stroke-linecap="round" stroke-linejoin="round"/>
</svg>
