<svg width="44" height="40" viewBox="0 0 44 40" fill="none" xmlns="http://www.w3.org/2000/svg">
<path d="M20.6047 38C23.0483 38.0029 25.4685 37.5386 27.7261 36.6339C29.9837 35.7291 32.0343 34.4016 33.76 32.7278C35.4901 31.0581 36.8621 29.0742 37.7973 26.89C38.7325 24.7057 39.2123 22.3642 39.2093 20C39.2123 17.6358 38.7325 15.2943 37.7973 13.11C36.8621 10.9258 35.4901 8.94186 33.76 7.27221C32.0343 5.59836 29.9837 4.27091 27.7261 3.36614C25.4685 2.46136 23.0483 1.9971 20.6047 2.00001C18.161 1.9971 15.7409 2.46136 13.4833 3.36614C11.2256 4.27091 9.17506 5.59836 7.44932 7.27221C5.71923 8.94186 4.34719 10.9258 3.41203 13.11C2.47686 15.2943 1.997 17.6358 2.00001 20C1.997 22.3642 2.47686 24.7057 3.41203 26.89C4.34719 29.0742 5.71923 31.0581 7.44932 32.7278C9.17506 34.4016 11.2256 35.7291 13.4833 36.6339C15.7409 37.5386 18.161 38.0029 20.6047 38Z" stroke="#333333" stroke-width="4" stroke-linejoin="round"/>
<path d="M13.1628 16.4L22.7752 25.4L42 7.4" stroke="#333333" stroke-width="4" stroke-linecap="round" stroke-linejoin="round"/>
<rect width="3.66331" height="1.82931" transform="matrix(0.732063 -0.681237 0.705027 0.709181 36.4627 15.2339)" fill="#D9D9D9"/>
<rect width="3.66331" height="1.82931" transform="matrix(0.732063 -0.681237 0.705027 0.709181 35.4884 16.1956)" fill="#FEFEFE" fill-opacity="0.996078"/>
<rect width="3.65893" height="1.8315" transform="matrix(0.706916 -0.707298 0.730247 0.683183 37.4167 14.4031)" fill="#FEFEFE" fill-opacity="0.996078"/>
<rect width="3.66331" height="1.82931" transform="matrix(0.732063 -0.681237 0.705027 0.709181 31.7674 11.7804)" fill="#FEFEFE" fill-opacity="0.996078"/>
<rect width="3.65893" height="1.8315" transform="matrix(0.706916 -0.707298 0.730247 0.683183 33.6958 9.98795)" fill="#FEFEFE" fill-opacity="0.996078"/>
</svg>
