<svg width="156" height="150" viewBox="0 0 156 150" fill="none" xmlns="http://www.w3.org/2000/svg">
<path d="M148.646 14.2249C152.708 14.2249 156.001 11.0405 156.001 7.11243C156.001 3.18435 152.708 0 148.646 0C144.584 0 141.291 3.18435 141.291 7.11243C141.291 11.0405 144.584 14.2249 148.646 14.2249Z" fill="#F44336"/>
<path d="M100.506 92.9746C100.506 92.9746 112.799 108.974 112.799 115.287C112.799 121.599 107.499 126.724 100.972 126.724C95.4002 126.724 25.7389 126.587 18.0476 126.587C10.3563 126.587 6 130.949 6 130.949" stroke="#84B0C1" stroke-width="0.614125" stroke-miterlimit="10" stroke-linecap="round"/>
<path d="M73.0234 91.4111C73.0234 91.4111 86.7256 108.973 86.7256 115.298C86.7256 121.623 80.7277 126.698 74.1998 126.698" stroke="#84B0C1" stroke-width="0.614125" stroke-miterlimit="10" stroke-linecap="round"/>
<path d="M103.969 103.413C101.371 99.1128 99.264 96.6128 95.8772 92.1379C95.8772 92.1379 96.7691 92.3254 99.1735 92.3254C101.578 92.3254 103.31 91.5879 103.31 91.5879C106.723 96.2503 107.744 97.4378 109.566 100.563C109.566 100.563 109.502 102.6 107.821 103.675C106.141 104.75 103.969 103.413 103.969 103.413ZM77.8446 103.625C74.2381 98.3003 71.3555 94.2379 71.3555 94.2379L79.1114 94.4129C79.1114 94.4129 82.5887 98.9253 84.5794 102.5C84.5794 102.5 84.8767 104.125 82.6533 104.975C80.4299 105.8 77.8446 103.625 77.8446 103.625Z" fill="#2F7889"/>
<path d="M100.533 93.2994L10.1245 87.4745C9.82717 87.4495 9.60742 87.2245 9.60742 86.937V38.1249C9.60742 37.6624 9.98229 37.2749 10.4606 37.2499L125.029 30.2C126.141 30.125 126.942 31.2 126.541 32.2L102.213 92.2744C101.942 92.9369 101.27 93.3494 100.533 93.2994Z" stroke="#84B0C1" stroke-width="0.614125" stroke-miterlimit="10"/>
<path d="M27.5725 36.3257L25.194 88.1253M48.087 34.9757L40.6542 89.2377M68.6144 33.6258L56.1144 90.3502M89.1418 32.2758L71.5746 91.4627M109.656 30.9258L87.0347 92.5752M7.69141 55.6006L118.291 51.9256M8.71261 72.6379H111.35" stroke="#84B0C1" stroke-width="0.3685" stroke-miterlimit="10"/>
<path d="M100.92 150C106.303 150 110.667 145.781 110.667 140.575C110.667 135.37 106.303 131.15 100.92 131.15C95.5375 131.15 91.1738 135.37 91.1738 140.575C91.1738 145.781 95.5375 150 100.92 150Z" fill="#424242"/>
<path d="M94.6348 127.599H107.212L104.213 140.211C103.929 142.173 102.546 143.598 100.93 143.598C99.3142 143.598 97.9181 142.173 97.6467 140.211L94.6348 127.599Z" fill="#84B0C1"/>
<path d="M102.934 140.661C102.701 141.486 102.274 142.423 101.408 142.636C98.28 143.411 97.8405 135.973 99.4176 134.698C100.374 133.923 102.365 133.786 103.205 134.748C104.278 135.973 103.334 139.298 102.934 140.661Z" fill="#A8E3F0"/>
<path d="M101.074 132.062C98.9925 132.062 97.5189 130.874 96.795 130.137C96.7458 130.088 96.7123 130.026 96.6985 129.959C96.6847 129.893 96.6911 129.823 96.7171 129.76C96.743 129.697 96.7874 129.642 96.8448 129.602C96.9021 129.563 96.9701 129.54 97.0406 129.537C98.3849 129.474 99.7293 129.487 101.061 129.449C102.405 129.487 103.749 129.474 105.081 129.537C105.391 129.549 105.546 129.924 105.327 130.137C104.641 130.874 103.155 132.062 101.074 132.062Z" fill="#2F7889"/>
<path d="M97.8549 143.775C98.6951 144.712 100.039 145.149 101.319 144.999C102.586 144.849 103.749 144.125 104.512 143.125C104.952 142.537 105.262 141.862 105.766 141.325C106.27 140.787 107.072 140.412 107.77 140.687C108.752 141.062 108.881 142.387 108.545 143.35C108.219 144.311 107.698 145.2 107.012 145.964C106.326 146.728 105.489 147.352 104.551 147.799C103.271 148.412 101.487 148.662 100.065 148.524C97.3378 148.249 94.4035 145.862 93.4469 143.412C92.9298 142.1 92.4774 139.462 95.1791 140.062C96.4329 140.35 96.8466 142.65 97.8549 143.775Z" fill="#757575"/>
<path d="M126.008 33.3865L131.967 19.2991C134.397 13.5492 136.194 12.2617 139.8 10.6992L148.242 7.38672" stroke="#84B0C1" stroke-width="0.614125" stroke-miterlimit="10" stroke-linecap="round"/>
<path d="M22.313 150C27.696 150 32.0597 145.781 32.0597 140.575C32.0597 135.37 27.696 131.15 22.313 131.15C16.9301 131.15 12.5664 135.37 12.5664 140.575C12.5664 145.781 16.9301 150 22.313 150Z" fill="#424242"/>
<path d="M16.0156 127.599H28.5932L25.5942 140.211C25.3098 142.173 23.9267 143.598 22.3109 143.598C20.695 143.598 19.299 142.173 19.0275 140.211L16.0156 127.599Z" fill="#84B0C1"/>
<path d="M24.3321 140.661C24.0994 141.486 23.6728 142.423 22.8067 142.636C19.6785 143.411 19.239 135.973 20.816 134.698C21.7726 133.923 23.7633 133.786 24.6035 134.748C25.6764 135.973 24.7199 139.298 24.3321 140.661Z" fill="#A8E3F0"/>
<path d="M22.4682 132.062C20.387 132.062 18.9134 130.874 18.1895 130.137C18.1403 130.088 18.1068 130.026 18.093 129.959C18.0792 129.893 18.0857 129.823 18.1116 129.76C18.1376 129.697 18.1819 129.642 18.2393 129.602C18.2967 129.563 18.3647 129.54 18.4351 129.537C19.7795 129.474 21.1238 129.487 22.4553 129.449C23.7996 129.487 25.144 129.474 26.4754 129.537C26.7857 129.549 26.9408 129.924 26.721 130.137C26.023 130.874 24.5364 132.062 22.4682 132.062Z" fill="#2F7889"/>
<path d="M19.2357 143.775C20.076 144.712 21.4203 145.149 22.7 144.999C23.9669 144.849 25.1302 144.125 25.8929 143.125C26.3324 142.537 26.6427 141.862 27.1468 141.325C27.6509 140.787 28.4524 140.412 29.1504 140.687C30.1328 141.062 30.2621 142.387 29.926 143.35C29.6001 144.311 29.0789 145.2 28.393 145.964C27.7071 146.728 26.8703 147.352 25.9317 147.799C24.652 148.412 22.8681 148.662 21.4462 148.524C18.7187 148.249 15.7843 145.862 14.8278 143.412C14.3107 142.1 13.8583 139.462 16.5599 140.062C17.8138 140.35 18.2275 142.65 19.2357 143.775Z" fill="#757575"/>
<circle cx="27" cy="74" r="25.5" fill="#FEFEFE" fill-opacity="0.996078" stroke="#91CAFF" stroke-width="3"/>
<path d="M7.57031 89.6504L46.4283 58.347" stroke="#91CAFF" stroke-width="3" stroke-linecap="round"/>
</svg>
