<svg width="36" height="36" viewBox="0 0 36 36" fill="none" xmlns="http://www.w3.org/2000/svg">
<path d="M20.7 36C29.3598 34.6895 36 27.1756 36 18.1014C36 8.10398 27.9414 0 18 0C8.0586 0 0 8.10398 0 18.1014C0 27.1756 6.6402 34.6913 15.3 36V23.5318H12.6C11.8839 23.5318 11.1972 23.2457 10.6908 22.7365C10.1845 22.2273 9.9 21.5367 9.9 20.8166C9.9 20.0965 10.1845 19.4058 10.6908 18.8966C11.1972 18.3874 11.8839 18.1014 12.6 18.1014H15.3V14.4811C15.3 12.8008 15.9637 11.1894 17.1452 10.0012C18.3267 8.8131 19.9291 8.14561 21.6 8.14561H22.5C23.2161 8.14561 23.9028 8.43168 24.4092 8.94088C24.9155 9.45008 25.2 10.1407 25.2 10.8608C25.2 11.5809 24.9155 12.2716 24.4092 12.7808C23.9028 13.29 23.2161 13.576 22.5 13.576H21.6C21.3613 13.576 21.1324 13.6714 20.9636 13.8411C20.7948 14.0108 20.7 14.2411 20.7 14.4811V18.1014H23.4C24.1161 18.1014 24.8028 18.3874 25.3092 18.8966C25.8155 19.4058 26.1 20.0965 26.1 20.8166C26.1 21.5367 25.8155 22.2273 25.3092 22.7365C24.8028 23.2457 24.1161 23.5318 23.4 23.5318H20.7V36Z" fill="#333333"/>
</svg>
