<svg width="36" height="36" viewBox="0 0 36 36" fill="none" xmlns="http://www.w3.org/2000/svg">
<g clip-path="url(#clip0_169_828)">
<path d="M12.541 1.1839C8.94399 2.43172 5.84198 4.80012 3.69055 7.94122C1.53912 11.0823 0.451678 14.8306 0.587947 18.6354C0.724215 22.4402 2.07701 26.101 4.44764 29.0802C6.81826 32.0593 10.0818 34.1997 13.7588 35.187C16.7398 35.9562 19.863 35.99 22.86 35.2855C25.575 34.6756 28.085 33.3712 30.1444 31.4998C32.2877 29.4927 33.8435 26.9393 34.6444 24.1142C35.5149 21.042 35.6698 17.8112 35.0972 14.6698H18.3572V21.6139H28.0519C27.8581 22.7214 27.4429 23.7785 26.8311 24.7218C26.2193 25.6651 25.4235 26.4753 24.4913 27.1039C23.3074 27.887 21.9729 28.4139 20.5735 28.6508C19.1699 28.9118 17.7302 28.9118 16.3266 28.6508C14.904 28.3567 13.5582 27.7695 12.375 26.9267C10.4742 25.5812 9.04692 23.6696 8.29689 21.4648C7.53418 19.2188 7.53418 16.7837 8.29689 14.5377C8.83078 12.9633 9.71336 11.5298 10.8788 10.3442C12.2124 8.96257 13.9009 7.97496 15.7589 7.48974C17.6169 7.00453 19.5726 7.04046 21.4116 7.59359C22.8481 8.03457 24.1618 8.80504 25.2478 9.84359C26.341 8.75609 27.4322 7.66578 28.5216 6.57265C29.0841 5.98484 29.6972 5.42515 30.2513 4.82328C28.5935 3.28056 26.6476 2.08013 24.525 1.29078C20.6598 -0.112686 16.4306 -0.150403 12.541 1.1839Z" fill="white"/>
<path d="M12.5409 1.18429C16.4302 -0.15092 20.6595 -0.114196 24.525 1.28836C26.6479 2.08307 28.5929 3.28928 30.2484 4.83773C29.6859 5.43961 29.0925 6.00211 28.5187 6.58711C27.4275 7.67648 26.3372 8.76211 25.2478 9.84398C24.1618 8.80543 22.8481 8.03496 21.4116 7.59398C19.5732 7.03891 17.6175 7.0009 15.759 7.48413C13.9006 7.96736 12.2111 8.95316 10.8759 10.3334C9.71053 11.5189 8.82794 12.9524 8.29406 14.5268L2.46375 10.0127C4.55064 5.87431 8.16398 2.70874 12.5409 1.18429Z" fill="#E33629"/>
<path d="M0.916857 14.4846C1.23023 12.9315 1.75049 11.4275 2.46373 10.0127L8.29404 14.538C7.53134 16.7841 7.53134 19.2191 8.29404 21.4652C6.35154 22.9652 4.40811 24.4727 2.46373 25.9877C0.678218 22.4336 0.133668 18.3841 0.916857 14.4846Z" fill="#F8BD00"/>
<path d="M18.3572 14.667H35.0972C35.6698 17.8084 35.5149 21.0392 34.6444 24.1114C33.8435 26.9365 32.2877 29.4898 30.1444 31.497C28.2628 30.0289 26.3728 28.572 24.4913 27.1039C25.4241 26.4747 26.2203 25.6636 26.8321 24.7192C27.444 23.7749 27.8588 22.7168 28.0519 21.6082H18.3572C18.3544 19.2964 18.3572 16.9817 18.3572 14.667Z" fill="#587DBD"/>
<path d="M2.46094 25.9873C4.40531 24.4873 6.34875 22.9798 8.29125 21.4648C9.04277 23.6704 10.4721 25.582 12.375 26.9267C13.5619 27.7656 14.9106 28.348 16.335 28.6367C17.7386 28.8977 19.1783 28.8977 20.5819 28.6367C21.9814 28.3998 23.3159 27.8729 24.4997 27.0898C26.3813 28.558 28.2712 30.0148 30.1528 31.483C28.0938 33.3553 25.5837 34.6608 22.8684 35.2714C19.8715 35.976 16.7482 35.9422 13.7672 35.173C11.4095 34.5435 9.20721 33.4337 7.29844 31.9133C5.27811 30.3093 3.628 28.2879 2.46094 25.9873Z" fill="#319F43"/>
</g>
<defs>
<clipPath id="clip0_169_828">
<rect width="36" height="36" fill="white"/>
</clipPath>
</defs>
</svg>
