<svg width="36" height="36" viewBox="0 0 36 36" fill="none" xmlns="http://www.w3.org/2000/svg">
<path d="M18.0018 12.6C16.5696 12.6 15.1961 13.1689 14.1834 14.1816C13.1707 15.1943 12.6018 16.5678 12.6018 18C12.6018 19.4322 13.1707 20.8057 14.1834 21.8184C15.1961 22.8311 16.5696 23.4 18.0018 23.4C19.434 23.4 20.8075 22.8311 21.8202 21.8184C22.8329 20.8057 23.4018 19.4322 23.4018 18C23.4018 16.5678 22.8329 15.1943 21.8202 14.1816C20.8075 13.1689 19.434 12.6 18.0018 12.6ZM18.0018 9C20.3887 9 22.6779 9.94821 24.3658 11.636C26.0536 13.3239 27.0018 15.6131 27.0018 18C27.0018 20.3869 26.0536 22.6761 24.3658 24.364C22.6779 26.0518 20.3887 27 18.0018 27C15.6149 27 13.3257 26.0518 11.6378 24.364C9.95001 22.6761 9.0018 20.3869 9.0018 18C9.0018 15.6131 9.95001 13.3239 11.6378 11.636C13.3257 9.94821 15.6149 9 18.0018 9ZM29.7018 8.55C29.7018 9.14674 29.4647 9.71903 29.0428 10.141C28.6208 10.5629 28.0485 10.8 27.4518 10.8C26.8551 10.8 26.2828 10.5629 25.8608 10.141C25.4389 9.71903 25.2018 9.14674 25.2018 8.55C25.2018 7.95326 25.4389 7.38097 25.8608 6.95901C26.2828 6.53705 26.8551 6.3 27.4518 6.3C28.0485 6.3 28.6208 6.53705 29.0428 6.95901C29.4647 7.38097 29.7018 7.95326 29.7018 8.55ZM18.0018 3.6C13.5486 3.6 12.8214 3.6126 10.7496 3.7044C9.3384 3.771 8.3916 3.96 7.5132 4.302C6.7785 4.57267 6.1141 5.00514 5.5692 5.5674C5.00629 6.11211 4.57319 6.77653 4.302 7.5114C3.96 8.3934 3.771 9.3384 3.7062 10.7478C3.6126 12.735 3.6 13.4298 3.6 18C3.6 22.455 3.6126 23.1804 3.7044 25.2522C3.771 26.6616 3.96 27.6102 4.3002 28.4868C4.6062 29.2698 4.9662 29.8332 5.5638 30.4308C6.1704 31.0356 6.7338 31.3974 7.5078 31.6962C8.397 32.04 9.3438 32.2308 10.7478 32.2956C12.735 32.3892 13.4298 32.4 18 32.4C22.455 32.4 23.1804 32.3874 25.2522 32.2956C26.6598 32.229 27.6066 32.04 28.4868 31.6998C29.2215 31.4291 29.8859 30.9967 30.4308 30.4344C31.0374 29.8296 31.3992 29.2662 31.698 28.4904C32.04 27.6048 32.2308 26.658 32.2956 25.2504C32.3892 23.265 32.4 22.5684 32.4 18C32.4 13.5468 32.3874 12.8196 32.2956 10.7478C32.229 9.3402 32.0382 8.3898 31.698 7.5114C31.4273 6.7767 30.9949 6.1123 30.4326 5.5674C29.8879 5.00449 29.2235 4.57139 28.4886 4.3002C27.6066 3.9582 26.6598 3.7692 25.2522 3.7044C23.2668 3.6108 22.572 3.6 18 3.6M18 0C22.8906 0 23.5008 0.0179999 25.4214 0.108C27.3366 0.198 28.6434 0.4986 29.79 0.945C30.978 1.4022 31.9788 2.0214 32.9796 3.0204C33.8952 3.91992 34.6035 5.00845 35.055 6.21C35.4996 7.3566 35.802 8.6634 35.892 10.5804C35.9766 12.4992 36 13.1094 36 18C36 22.8906 35.982 23.5008 35.892 25.4196C35.802 27.3384 35.4996 28.6416 35.055 29.79C34.6035 30.9915 33.8952 32.0801 32.9796 32.9796C32.0801 33.8952 30.9915 34.6035 29.79 35.055C28.6434 35.4996 27.3366 35.802 25.4214 35.892C23.5008 35.9766 22.8906 36 18 36C13.1094 36 12.4992 35.982 10.5786 35.892C8.6634 35.802 7.3584 35.4996 6.21 35.055C5.00845 34.6035 3.91992 33.8952 3.0204 32.9796C2.10475 32.0801 1.39647 30.9915 0.945 29.79C0.4986 28.6434 0.198 27.3366 0.108 25.4196C0.0215999 23.5008 0 22.8906 0 18C0 13.1094 0.0179999 12.4992 0.108 10.5804C0.198 8.6616 0.4986 7.3584 0.945 6.21C1.39647 5.00845 2.10475 3.91992 3.0204 3.0204C3.91992 2.10475 5.00845 1.39647 6.21 0.945C7.3566 0.4986 8.6616 0.198 10.5786 0.108C12.501 0.0233999 13.1112 0 18.0018 0" fill="#333333"/>
</svg>
