<svg width="16" height="8" viewBox="0 0 16 8" fill="none" xmlns="http://www.w3.org/2000/svg">
<path fill-rule="evenodd" clip-rule="evenodd" d="M1.81844 0.16846C2.08556 0.0288291 2.39876 -0.00191124 2.68917 0.0829968C2.97959 0.167905 3.22345 0.361511 3.36715 0.621251C3.61448 1.06586 3.93608 1.46738 4.3188 1.80941C5.2407 2.64045 6.52977 3.17001 7.97897 3.17001C9.42246 3.17001 10.7081 2.64379 11.6289 1.81831C12.0155 1.47465 12.3403 1.0704 12.5897 0.622363C12.6574 0.488067 12.7523 0.368443 12.8687 0.270645C12.9851 0.172848 13.1206 0.098887 13.267 0.0531854C13.4135 0.00748377 13.5679 -0.00901937 13.7211 0.00466294C13.8742 0.0183453 14.023 0.0619321 14.1584 0.132816C14.2939 0.203701 14.4132 0.300426 14.5094 0.417208C14.6055 0.53399 14.6764 0.668429 14.7179 0.812484C14.7594 0.956539 14.7706 1.10725 14.7508 1.25561C14.731 1.40396 14.6806 1.54691 14.6028 1.67591C14.4532 1.94647 14.2847 2.20668 14.0983 2.45467L15.575 3.65951C15.6932 3.75236 15.7911 3.86718 15.8632 3.99726C15.9352 4.12734 15.9799 4.27008 15.9946 4.41714C16.0093 4.5642 15.9938 4.71264 15.9489 4.85379C15.904 4.99494 15.8306 5.12597 15.7331 5.23925C15.6355 5.35252 15.5158 5.44576 15.3808 5.51352C15.2458 5.58128 15.0982 5.62221 14.9468 5.63392C14.7954 5.64562 14.6431 5.62787 14.4988 5.5817C14.3545 5.53552 14.2211 5.46185 14.1063 5.36499L12.4593 4.02219C12.048 4.30638 11.6085 4.54975 11.1473 4.74866L11.853 6.47638C11.965 6.75079 11.9603 7.0572 11.8399 7.32822C11.7196 7.59924 11.4935 7.81266 11.2114 7.92153C10.9292 8.03041 10.6142 8.02582 10.3356 7.90878C10.0569 7.79173 9.8375 7.57182 9.72556 7.29742L8.92719 5.3394C8.29539 5.41292 7.65684 5.41292 7.02504 5.3394L6.22438 7.29742C6.10408 7.55954 5.88427 7.76629 5.61089 7.87445C5.33752 7.98261 5.03174 7.98381 4.75748 7.8778C4.48322 7.77178 4.2617 7.56676 4.13923 7.30559C4.01676 7.04442 4.00282 6.74732 4.10033 6.47638L4.80606 4.74643C4.34616 4.54803 3.90781 4.30541 3.49754 4.02219L1.84932 5.36388C1.61567 5.54197 1.31999 5.62473 1.02475 5.59468C0.729517 5.56462 0.457858 5.42411 0.267179 5.20283C0.0765001 4.98154 -0.0182619 4.69683 0.00291701 4.40884C0.024096 4.12085 0.159557 3.85215 0.380676 3.65951L1.85847 2.45467C1.67172 2.20671 1.5028 1.94651 1.35291 1.67591C1.20935 1.4161 1.17775 1.11147 1.26504 0.828999C1.35234 0.546529 1.55139 0.308225 1.81844 0.16846Z" fill="#333333"/>
</svg>
