<svg width="148" height="56" viewBox="0 0 148 56" fill="none" xmlns="http://www.w3.org/2000/svg">
<path d="M12 12C12 7.58172 15.5817 4 20 4H110C114.418 4 118 7.58172 118 12V43C118 47.4183 114.418 51 110 51H20C15.5817 51 12 47.4183 12 43V12Z" fill="#91CAFF"/>
<path d="M44.6047 26.3522C45.76 27.147 45.76 28.853 44.6047 29.6478L14.8835 50.0931C13.5566 51.006 11.75 50.056 11.75 48.4454V7.55462C11.75 5.94401 13.5566 4.99403 14.8835 5.90685L44.6047 26.3522Z" fill="#FEFEFE" fill-opacity="0.996078"/>
<path d="M145.547 25.8428C146.721 26.6358 146.721 28.3642 145.547 29.1572L115.87 49.208C114.541 50.1054 112.75 49.1538 112.75 47.5508V7.44923C112.75 5.84624 114.541 4.89461 115.87 5.79201L145.547 25.8428Z" fill="#91CAFF"/>
</svg>
