<svg width="20" height="22" viewBox="0 0 20 22" fill="none" xmlns="http://www.w3.org/2000/svg">
<path fill-rule="evenodd" clip-rule="evenodd" d="M8.49999 1.91687e-08C7.14459 0.000115492 5.80886 0.324364 4.60425 0.945694C3.39964 1.56702 2.36109 2.46742 1.57523 3.57175C0.789373 4.67609 0.279004 5.95235 0.0867024 7.29404C-0.105599 8.63574 0.0257435 10.004 0.469772 11.2846C0.913801 12.5652 1.65764 13.7211 2.63923 14.6557C3.62082 15.5904 4.8117 16.2768 6.11251 16.6576C7.41332 17.0384 8.78634 17.1026 10.117 16.8449C11.4477 16.5872 12.6974 16.015 13.762 15.176L17.414 18.828C17.6026 19.0102 17.8552 19.111 18.1174 19.1087C18.3796 19.1064 18.6304 19.0012 18.8158 18.8158C19.0012 18.6304 19.1064 18.3796 19.1087 18.1174C19.1109 17.8552 19.0102 17.6026 18.828 17.414L15.176 13.762C16.164 12.5086 16.7792 11.0024 16.9511 9.41573C17.123 7.82905 16.8448 6.22602 16.1482 4.79009C15.4516 3.35417 14.3649 2.14336 13.0123 1.29623C11.6597 0.449106 10.096 -0.000107143 8.49999 1.91687e-08ZM1.99999 8.5C1.99999 6.77609 2.68481 5.12279 3.9038 3.90381C5.12279 2.68482 6.77609 2 8.49999 2C10.2239 2 11.8772 2.68482 13.0962 3.90381C14.3152 5.12279 15 6.77609 15 8.5C15 10.2239 14.3152 11.8772 13.0962 13.0962C11.8772 14.3152 10.2239 15 8.49999 15C6.77609 15 5.12279 14.3152 3.9038 13.0962C2.68481 11.8772 1.99999 10.2239 1.99999 8.5Z" fill="#B0B0B0"/>
</svg>
