<svg width="12" height="12" viewBox="0 0 12 12" fill="none" xmlns="http://www.w3.org/2000/svg">
<path d="M2.5 0C1.83696 0 1.20107 0.263392 0.732233 0.732233C0.263392 1.20107 0 1.83696 0 2.5V9.5C0 10.163 0.263392 10.7989 0.732233 11.2678C1.20107 11.7366 1.83696 12 2.5 12H9.5C10.163 12 10.7989 11.7366 11.2678 11.2678C11.7366 10.7989 12 10.163 12 9.5V2.5C12 1.83696 11.7366 1.20107 11.2678 0.732233C10.7989 0.263392 10.163 0 9.5 0H2.5ZM1 2.5C1 2.10218 1.15804 1.72064 1.43934 1.43934C1.72064 1.15804 2.10218 1 2.5 1H9.5C9.89782 1 10.2794 1.15804 10.5607 1.43934C10.842 1.72064 11 2.10218 11 2.5V9.5C11 9.89782 10.842 10.2794 10.5607 10.5607C10.2794 10.842 9.89782 11 9.5 11H2.5C2.10218 11 1.72064 10.842 1.43934 10.5607C1.15804 10.2794 1 9.89782 1 9.5V2.5ZM8.854 4.854C8.94789 4.76011 9.00063 4.63278 9.00063 4.5C9.00063 4.36722 8.94789 4.23989 8.854 4.146C8.76011 4.05211 8.63278 3.99937 8.5 3.99937C8.36722 3.99937 8.23989 4.05211 8.146 4.146L5 7.293L3.854 6.146C3.76011 6.05211 3.63278 5.99937 3.5 5.99937C3.36722 5.99937 3.23989 6.05211 3.146 6.146C3.05211 6.23989 2.99937 6.36722 2.99937 6.5C2.99937 6.63278 3.05211 6.76011 3.146 6.854L4.646 8.354C4.69245 8.40056 4.74762 8.43751 4.80837 8.46271C4.86911 8.48792 4.93423 8.50089 5 8.50089C5.06577 8.50089 5.13089 8.48792 5.19163 8.46271C5.25238 8.43751 5.30755 8.40056 5.354 8.354L8.854 4.854Z" fill="#333333"/>
</svg>
