<svg width="16" height="8" viewBox="0 0 16 8" fill="none" xmlns="http://www.w3.org/2000/svg">
<path d="M8 5.60001C8.4715 5.60001 8.92368 5.43144 9.25708 5.13138C9.59048 4.83132 9.77778 4.42436 9.77778 4.00001C9.77778 3.57566 9.59048 3.1687 9.25708 2.86864C8.92368 2.56858 8.4715 2.40001 8 2.40001C7.5285 2.40001 7.07632 2.56858 6.74292 2.86864C6.40952 3.1687 6.22222 3.57566 6.22222 4.00001C6.22222 4.42436 6.40952 4.83132 6.74292 5.13138C7.07632 5.43144 7.5285 5.60001 8 5.60001Z" fill="#333333"/>
<path fill-rule="evenodd" clip-rule="evenodd" d="M16 4C16 6.2088 12.4178 8 8 8C3.58222 8 0 6.2088 0 4C0 1.7912 3.58222 0 8 0C12.4178 0 16 1.7912 16 4ZM11.5556 4C11.5556 4.84869 11.181 5.66263 10.5142 6.26274C9.84736 6.86286 8.94299 7.2 8 7.2C7.05701 7.2 6.15264 6.86286 5.48584 6.26274C4.81905 5.66263 4.44444 4.84869 4.44444 4C4.44444 3.15131 4.81905 2.33737 5.48584 1.73726C6.15264 1.13714 7.05701 0.8 8 0.8C8.94299 0.8 9.84736 1.13714 10.5142 1.73726C11.181 2.33737 11.5556 3.15131 11.5556 4Z" fill="#333333"/>
</svg>
